<svg width="20" height="20" viewBox="0 0 20 20" fill="none" xmlns="http://www.w3.org/2000/svg">
<g filter="url(#filter0_d)">
<path d="M13.2787 13.278C10.433 16.1238 6.21966 16.6021 3.47241 14.5283C3.64097 14.7514 3.82415 14.9661 4.02648 15.1684C6.71857 17.8605 11.3956 17.5487 14.4727 14.472C17.5494 11.3949 17.8612 6.7179 15.1688 4.0258C14.9668 3.82348 14.7521 3.6403 14.5289 3.47174C16.6028 6.21899 16.1244 10.4323 13.2787 13.278Z" fill="#F4BF1A"/>
<path d="M13.9744 2.8318C16.6668 5.52418 16.355 10.2009 13.278 13.278C10.2009 16.355 5.52418 16.6668 2.8318 13.9744C0.13943 11.2821 0.451214 6.60529 3.52825 3.52825C6.60529 0.451214 11.2821 0.13943 13.9744 2.8318Z" fill="#FFD949"/>
<path d="M7.41836 14.6807C5.94301 14.6807 4.59739 14.1472 3.62855 13.1787C1.37937 10.9295 1.69172 6.95732 4.325 4.32432C5.72212 2.92692 7.56806 2.12579 9.38952 2.12579C10.8649 2.12579 12.2105 2.65932 13.1793 3.62787C15.4285 5.87705 15.1162 9.8492 12.4829 12.4822C11.086 13.879 9.2401 14.6807 7.41836 14.6807Z" fill="#F4BF1A"/>
<path d="M13.4697 13.0708L14.6673 14.2685C14.7971 14.1306 14.9223 13.9902 15.0413 13.8466L13.8457 12.651C13.7266 12.7942 13.5992 12.933 13.4697 13.0708Z" fill="#DCA815"/>
<path d="M12.4255 14.0192L13.6237 15.2174C13.7714 15.1028 13.9161 14.9818 14.0582 14.8561L12.862 13.6599C12.7193 13.7856 12.5736 13.9044 12.4255 14.0192Z" fill="#DCA815"/>
<path d="M14.3557 11.9672L15.553 13.1646C15.6617 13.0042 15.7647 12.8415 15.8612 12.6769L14.6664 11.4821C14.5696 11.6467 14.464 11.8077 14.3557 11.9672Z" fill="#DCA815"/>
<path d="M15.0693 10.6934L16.2681 11.8919C16.3528 11.7056 16.4293 11.5173 16.4994 11.3277L15.3023 10.1306C15.2323 10.32 15.1538 10.5074 15.0693 10.6934Z" fill="#DCA815"/>
<path d="M11.2224 14.806L12.42 16.0036C12.5897 15.9118 12.758 15.8156 12.9234 15.7109L11.725 14.5128C11.5595 14.6172 11.3921 14.7142 11.2224 14.806Z" fill="#DCA815"/>
<path d="M9.83179 15.4064L11.0291 16.6037C11.2241 16.5396 11.4186 16.4692 11.611 16.3896L10.414 15.1928C10.2215 15.2722 10.0274 15.3425 9.83179 15.4064Z" fill="#DCA815"/>
<path d="M7.8313 15.7885L9.02975 16.987C9.26922 16.9735 9.50981 16.9484 9.7504 16.9118L8.55138 15.7128C8.31079 15.7491 8.07076 15.7753 7.8313 15.7885Z" fill="#DCA815"/>
<path d="M5.61401 15.5644L6.81556 16.7659C7.13635 16.852 7.46446 16.9142 7.79763 16.9525L6.59664 15.7512C6.26319 15.7124 5.93508 15.6511 5.61401 15.5644Z" fill="#DCA815"/>
<path d="M15.6558 8.89053L16.8522 10.087C16.8978 9.85684 16.933 9.62638 16.9572 9.3962L15.7593 8.1983C15.7351 8.42905 15.7011 8.65979 15.6558 8.89053Z" fill="#DCA815"/>
<path d="M16.9861 8.23314C16.9701 7.92952 16.9366 7.62871 16.882 7.33325L15.6774 6.1286C15.7334 6.42829 15.7764 6.73135 15.7925 7.03947L16.9861 8.23314Z" fill="#DCA815"/>
<path d="M11.6772 7.21184C11.61 5.57385 10.4034 4.94127 8.55432 4.9393C8.47243 4.9393 8.39195 4.94184 8.31288 4.94718C7.73687 4.98517 7.20053 4.89372 6.81277 4.63146C6.65632 4.52537 6.53138 4.41422 6.45231 4.29801C6.41657 4.24511 6.31724 4.28169 6.31189 4.34922C6.30289 4.46572 6.2967 4.6022 6.29895 4.75246C6.30683 5.32172 6.25027 5.23702 5.90359 5.7742C5.71196 6.07135 5.55888 6.40452 5.44492 6.76273C5.19279 6.86572 4.98765 7.08662 4.92884 7.35844L4.85118 7.71891C4.78083 8.04476 4.93616 8.35148 5.21446 8.48796C5.25695 9.29893 5.55663 10.0244 6.27644 10.5323L6.18611 11.0225C6.16275 11.1491 6.0713 11.2481 5.95115 11.2777L4.27123 11.6871C3.8345 11.8154 3.50049 12.1995 3.39018 12.6973L3.36401 12.8158C3.44984 12.9165 3.53369 13.019 3.6288 13.1138C4.59736 14.0826 5.94327 14.6161 7.41861 14.6161C8.6756 14.6161 9.9444 14.234 11.0694 13.5381L9.15312 12.0594C9.02762 11.9623 8.9615 11.814 8.98119 11.6745L9.05801 11.1235C10.1335 10.9341 10.8432 10.263 11.2568 9.33946C11.7391 9.28402 12.1283 8.96773 12.1691 8.54002L12.2138 8.06896C12.2479 7.713 12.0222 7.38996 11.6772 7.21184Z" fill="#FFD949"/>
</g>
<defs>
<filter id="filter0_d" x="0" y="0" width="20.0006" height="20" filterUnits="userSpaceOnUse" color-interpolation-filters="sRGB">
<feFlood flood-opacity="0" result="BackgroundImageFix"/>
<feColorMatrix in="SourceAlpha" type="matrix" values="0 0 0 0 0 0 0 0 0 0 0 0 0 0 0 0 0 0 127 0"/>
<feOffset dx="1" dy="1"/>
<feGaussianBlur stdDeviation="1"/>
<feColorMatrix type="matrix" values="0 0 0 0 0.591839 0 0 0 0 0.102772 0 0 0 0 0.170341 0 0 0 0.5 0"/>
<feBlend mode="normal" in2="BackgroundImageFix" result="effect1_dropShadow"/>
<feBlend mode="normal" in="SourceGraphic" in2="effect1_dropShadow" result="shape"/>
</filter>
</defs>
</svg>
