<svg width="12" height="12" viewBox="0 0 12 12" fill="none" xmlns="http://www.w3.org/2000/svg">
<path d="M6.94319 5.99991L11.1377 1.80538C11.3983 1.545 11.3983 1.12252 11.1377 0.862138C10.8771 0.601537 10.4551 0.601537 10.1945 0.862138L5.99995 5.05667L1.80519 0.862138C1.54459 0.601537 1.12256 0.601537 0.861955 0.862138C0.601353 1.12252 0.601353 1.545 0.861955 1.80538L5.05671 5.99991L0.861955 10.1944C0.601353 10.4548 0.601353 10.8773 0.861955 11.1377C0.992256 11.2678 1.16303 11.3329 1.33357 11.3329C1.50412 11.3329 1.67489 11.2678 1.80519 11.1375L5.99995 6.94292L10.1945 11.1375C10.3248 11.2678 10.4956 11.3329 10.6661 11.3329C10.8366 11.3329 11.0074 11.2678 11.1377 11.1375C11.3983 10.8771 11.3983 10.4546 11.1377 10.1942L6.94319 5.99991Z" fill="white" stroke="white" stroke-width="0.5"/>
</svg>
