<svg width="12" height="7" viewBox="0 0 12 7" fill="none" xmlns="http://www.w3.org/2000/svg">
<path d="M5.39889 6.60136L5.39888 6.60135L1.0992 2.30153C1.09919 2.30152 1.09918 2.30151 1.09917 2.3015C0.766947 1.96941 0.76692 1.43093 1.09923 1.09894C1.43122 0.767005 1.9696 0.767016 2.30156 1.099M5.39889 6.60136L2.19549 1.20506M5.39889 6.60136C5.56484 6.76728 5.78268 6.85037 6.00009 6.85037C6.21739 6.85037 6.4351 6.76743 6.60113 6.60148L6.60115 6.60146L10.9009 2.30162C10.9009 2.30161 10.9009 2.30161 10.9009 2.30161C11.233 1.96953 11.233 1.43111 10.9009 1.0991L10.7949 1.20516L10.9009 1.09908C10.5689 0.767101 10.0306 0.767139 9.69848 1.09908L9.69846 1.0991L6.00007 4.79762M5.39889 6.60136L6.10614 4.90369M2.30156 1.099L2.19549 1.20506M2.30156 1.099L2.30156 1.09899L2.19549 1.20506M2.30156 1.099L6.00007 4.79762M2.19549 1.20506L5.894 4.90369L6.00007 4.79762M6.00007 4.79762L6.10614 4.90369M6.10614 4.90369L9.80452 1.20517C10.078 0.931758 10.5214 0.931758 10.7949 1.20517C11.0684 1.47858 11.0684 1.92203 10.7949 2.19555L6.49508 6.49539C6.35831 6.6321 6.17925 6.70037 6.00009 6.70037C5.82085 6.70037 5.64165 6.63197 5.50495 6.49528L6.10614 4.90369Z" fill="#559BD9" stroke="#559BD9" stroke-width="0.3"/>
</svg>
